<svg id="Layer_1" data-name="Layer 1" xmlns="http://www.w3.org/2000/svg" viewBox="0 0 100 100"><defs><style>.cls-1{fill:#f0f2ff;}.cls-10,.cls-2,.cls-9{fill:none;}.cls-10,.cls-11,.cls-12,.cls-2,.cls-3,.cls-5,.cls-8,.cls-9{stroke:#4f78e0;}.cls-2,.cls-3,.cls-5{stroke-linecap:round;}.cls-10,.cls-11,.cls-12,.cls-2,.cls-3,.cls-5{stroke-linejoin:round;}.cls-12,.cls-3,.cls-4,.cls-8{fill:#fff;}.cls-11,.cls-5,.cls-7{fill:#d6daff;}.cls-6{fill:#4f78e0;}.cls-8,.cls-9{stroke-miterlimit:10;}</style></defs><title>success-goal-businessman</title><path class="cls-1" d="M90,53.36a40,40,0,1,0-76.44,16.5H86.44A39.88,39.88,0,0,0,90,53.36Z"/><line class="cls-2" x1="11" y1="69.86" x2="89" y2="69.86"/><line class="cls-2" x1="6.5" y1="69.86" x2="9" y2="69.86"/><line class="cls-2" x1="91" y1="69.86" x2="93.5" y2="69.86"/><ellipse class="cls-1" cx="35.45" cy="84.92" rx="11.5" ry="1.72"/><path class="cls-3" d="M44.7,67.09a2.07,2.07,0,1,1-4.14,0V64.33H44.7Z"/><path class="cls-4" d="M39.33,80.89a6.15,6.15,0,0,1,2.61.55V61.57H26.76V80.89h3a6.31,6.31,0,0,1,2.58.53l.53-12.26a1.44,1.44,0,0,1,2.88,0l.51,11.73Z"/><path class="cls-2" d="M39.33,80.89a6.15,6.15,0,0,1,2.61.55V61.57H26.76V80.89h3a6.31,6.31,0,0,1,2.58.53l.53-12.26a1.44,1.44,0,0,1,2.88,0l.51,11.73Z"/><path class="cls-5" d="M43.88,84.34c0-2.47-2.42-3.45-4.55-3.45h-3v2.3a1.14,1.14,0,0,0,1.15,1.15Z"/><path class="cls-5" d="M34.35,84.34c0-2.47-2.41-3.45-4.55-3.45h-3v2.3a1.15,1.15,0,0,0,1.15,1.15Z"/><path class="cls-3" d="M34.36,22.7a6.9,6.9,0,0,0-6.9,6.9V31c-2,0-1.83,3.45.35,3.45h0a6.88,6.88,0,0,0,13.45-2.07V29.6A6.9,6.9,0,0,0,34.36,22.7Z"/><path class="cls-6" d="M33.15,30.29a.87.87,0,1,0,.87.86.87.87,0,0,0-.87-.86Z"/><path class="cls-6" d="M38.33,30.29a.87.87,0,1,0,.86.86.86.86,0,0,0-.86-.86Z"/><path class="cls-7" d="M32.29,33.91a.69.69,0,1,1-.69-.69A.69.69,0,0,1,32.29,33.91Z"/><path class="cls-2" d="M34,35.06a2.58,2.58,0,0,0,3,.28,3.71,3.71,0,0,0,.41-.28"/><path class="cls-3" d="M30.57,26.82c3,2.94,8.24,2.45,11.38,1.39a7.59,7.59,0,0,0-15.18,0v2.4s3.8-.95,3.8-3.8"/><path class="cls-2" d="M30.57,26.82c3,2.94,8.24,2.45,11.38,1.39a7.59,7.59,0,0,0-15.18,0v2.4s3.8-.95,3.8-3.8"/><path class="cls-2" d="M30.57,26.82c-.35-.34-.4-.28-.69-.72"/><rect class="cls-8" x="17.1" y="71.23" width="15.18" height="11.04" rx="1.38" ry="1.38"/><line class="cls-9" x1="20.55" y1="71.23" x2="20.55" y2="82.22"/><line class="cls-9" x1="28.83" y1="71.28" x2="28.83" y2="82.27"/><path class="cls-9" d="M21.93,71.16V69.47a1.69,1.69,0,0,1,1.69-1.69h2.14a1.69,1.69,0,0,1,1.69,1.69v1.69"/><rect class="cls-9" x="17.1" y="71.23" width="15.18" height="11.04" rx="1.38" ry="1.38"/><path class="cls-3" d="M26.76,67.09a2.07,2.07,0,0,1-4.14,0V64.33h4.14Z"/><path class="cls-4" d="M45.39,53.29a11.73,11.73,0,0,0-23.46,0v9.89a1.15,1.15,0,0,0,1.15,1.15h3.68v5.18h3.72a4.65,4.65,0,0,0,3.87-2.07,4.65,4.65,0,0,0,3.87,2.07h3.72V64.33h2.3a1.14,1.14,0,0,0,1.15-1.15Z"/><path class="cls-2" d="M45.39,53.29a11.73,11.73,0,0,0-23.46,0v9.89a1.15,1.15,0,0,0,1.15,1.15h3.68v5.18h3.72a4.65,4.65,0,0,0,3.87-2.07,4.65,4.65,0,0,0,3.87,2.07h3.72V64.33h2.3a1.14,1.14,0,0,0,1.15-1.15Z"/><line class="cls-2" x1="41.94" y1="64.33" x2="41.94" y2="52.6"/><line class="cls-2" x1="26.76" y1="64.33" x2="26.76" y2="52.6"/><path class="cls-3" d="M34.35,59.5l4.8-16.58a11.8,11.8,0,0,0-5.49-1.36,11.57,11.57,0,0,0-4.26.81Z"/><path class="cls-3" d="M39.15,42.92,34.35,59.5l5.52-7.59V48.46l2.74-2.74A11.88,11.88,0,0,0,39.15,42.92Z"/><polygon class="cls-5" points="34.35 41.58 32.3 52.41 34.35 59.5 36.4 52.41 34.35 41.58"/><line class="cls-2" x1="34.35" y1="67.09" x2="34.35" y2="59.5"/><polyline class="cls-2" points="38.04 46.73 34.36 41.58 30.66 46.73"/><path class="cls-3" d="M34.35,59.5l-5-17.14a11.82,11.82,0,0,0-4,2.65l3.48,3.45v3.45Z"/><path class="cls-7" d="M66.65,35.65a2.41,2.41,0,0,0-2.24,1.55L52,69.85H81.8L69.19,37.19A2.38,2.38,0,0,0,67,35.65Z"/><path class="cls-10" d="M66.65,35.65a2.41,2.41,0,0,0-2.24,1.55L52,69.85H81.8L69.19,37.19A2.38,2.38,0,0,0,67,35.65Z"/><line class="cls-2" x1="66.8" y1="35.65" x2="66.8" y2="26.06"/><path class="cls-7" d="M66.8,15.06a1,1,0,0,1,1-1H82.25a.6.6,0,0,1,.45,1l-3.9,4.33a1,1,0,0,0,0,1.33l3.9,4.33a.61.61,0,0,1-.45,1H66.8Z"/><path class="cls-10" d="M66.8,15.06a1,1,0,0,1,1-1H82.25a.6.6,0,0,1,.45,1l-3.9,4.33a1,1,0,0,0,0,1.33l3.9,4.33a.61.61,0,0,1-.45,1H66.8Z"/><path class="cls-11" d="M55,52.2a1.2,1.2,0,0,0-2.14,0L44,69.85H63.8Z"/><path class="cls-12" d="M50.72,56.41,53,59.1a1.2,1.2,0,0,0,.92.43,1.22,1.22,0,0,0,.92-.43l2.26-2.69L55,52.2a1.2,1.2,0,0,0-2.14,0Z"/><path class="cls-4" d="M62.41,50.53a1.21,1.21,0,0,0,1.88.23L66,49.1a1.2,1.2,0,0,1,1.7,0l1.66,1.66a1.2,1.2,0,0,0,1.88-.24L73.1,47.3,69.19,37.19A2.38,2.38,0,0,0,67,35.65h-.3a2.41,2.41,0,0,0-2.24,1.55L60.53,47.36Z"/><path class="cls-10" d="M62.41,50.53a1.21,1.21,0,0,0,1.88.23L66,49.1a1.2,1.2,0,0,1,1.7,0l1.66,1.66a1.2,1.2,0,0,0,1.88-.24L73.1,47.3,69.19,37.19A2.38,2.38,0,0,0,67,35.65h-.3a2.41,2.41,0,0,0-2.24,1.55L60.53,47.36Z"/></svg>